<?xml version="1.0" standalone="no"?>
<!DOCTYPE svg PUBLIC "-//W3C//DTD SVG 20010904//EN"
 "http://www.w3.org/TR/2001/REC-SVG-20010904/DTD/svg10.dtd">
<svg version="1.0" xmlns="http://www.w3.org/2000/svg"
 width="3543.000000pt" height="3543.000000pt" viewBox="0 0 3543.000000 3543.000000"
 preserveAspectRatio="xMidYMid meet">

<g transform="translate(0.000000,3543.000000) scale(0.100000,-0.100000)"
fill="#000000" stroke="none">
<path d="M10098 33110 c-98 -4 -197 -12 -220 -18 -54 -14 -147 -29 -217 -37
-80 -9 -344 -83 -466 -130 -33 -13 -77 -29 -97 -35 -21 -6 -40 -15 -43 -20 -3
-5 -22 -14 -43 -20 -48 -16 -261 -121 -332 -165 -30 -19 -64 -39 -76 -44 -11
-5 -33 -20 -50 -33 -16 -13 -54 -39 -84 -58 -122 -76 -376 -287 -490 -407
-150 -157 -288 -327 -376 -461 -31 -48 -69 -105 -83 -127 -15 -22 -33 -51 -40
-65 -6 -14 -25 -47 -41 -75 -36 -64 -110 -212 -110 -221 0 -4 -11 -30 -24 -58
-35 -75 -66 -155 -80 -206 -7 -25 -20 -59 -29 -75 -8 -17 -18 -49 -22 -70 -4
-22 -17 -74 -30 -115 -13 -41 -26 -101 -30 -134 -4 -32 -13 -79 -21 -105 -8
-25 -21 -103 -29 -173 -8 -70 -20 -139 -25 -153 -16 -42 -13 -604 4 -651 7
-22 16 -68 20 -104 4 -36 18 -108 32 -160 13 -52 24 -109 24 -127 0 -18 11
-67 25 -110 14 -43 25 -85 25 -93 0 -15 58 -191 102 -310 26 -70 109 -249 134
-290 8 -14 24 -43 35 -65 10 -22 32 -60 49 -85 16 -25 37 -58 46 -75 16 -28
131 -185 198 -269 17 -21 68 -78 113 -126 102 -111 220 -255 254 -312 62 -102
126 -241 135 -289 3 -19 14 -59 24 -90 11 -31 24 -105 30 -164 8 -76 10 -2349
9 -7953 -1 -4316 1 -8151 5 -8522 4 -371 3 -1168 -1 -1770 -9 -1129 -6 -1395
20 -1490 8 -30 18 -89 22 -130 4 -41 16 -97 26 -125 10 -27 25 -81 34 -118 8
-38 22 -78 30 -90 8 -12 15 -31 15 -42 0 -11 13 -47 30 -80 16 -33 30 -67 30
-75 1 -8 19 -46 40 -85 22 -38 48 -88 59 -111 39 -83 189 -289 295 -406 95
-106 359 -327 390 -328 5 0 17 -6 25 -14 23 -20 246 -134 284 -145 18 -5 55
-18 82 -29 114 -46 266 -82 470 -113 52 -8 261 -22 320 -21 78 1 259 14 300
21 145 25 235 45 280 62 28 10 64 21 80 24 39 8 209 80 285 121 14 7 48 25 77
40 29 14 57 32 64 40 6 8 17 14 24 14 7 0 50 30 95 68 44 37 96 77 113 90 121
88 361 389 422 532 9 19 21 44 27 55 53 92 117 255 139 355 6 25 19 75 30 111
28 97 40 231 48 539 3 151 10 281 15 289 5 8 10 1612 12 3840 3 4119 5 4436
30 4461 26 26 152 32 819 36 6489 35 5432 32 7611 17 1684 -13 1722 -13 1780
-33 66 -23 102 -54 142 -120 l27 -45 -1 -305 c0 -168 -4 -1781 -8 -3585 -7
-3144 -8 -3283 -26 -3345 -10 -36 -21 -80 -25 -98 -6 -28 -42 -105 -96 -202
-24 -43 -161 -223 -209 -275 -64 -68 -191 -237 -275 -365 -37 -58 -79 -121
-92 -141 -12 -19 -23 -39 -23 -44 0 -5 -6 -16 -14 -24 -24 -28 -196 -378 -196
-400 0 -6 -11 -34 -24 -63 -14 -29 -31 -73 -39 -98 -8 -25 -19 -58 -25 -75
-21 -58 -70 -231 -79 -280 -6 -27 -18 -79 -26 -115 -19 -76 -51 -309 -68 -494
-20 -211 15 -661 67 -861 9 -33 24 -98 35 -145 16 -76 40 -160 71 -245 6 -16
17 -50 25 -75 8 -25 25 -68 39 -96 13 -28 24 -56 24 -62 0 -11 119 -247 163
-322 14 -25 35 -62 46 -82 127 -228 450 -606 679 -796 159 -130 413 -312 439
-312 5 0 27 -13 49 -30 21 -16 46 -30 55 -30 9 0 27 -8 40 -18 13 -10 40 -24
59 -32 19 -7 46 -21 60 -30 14 -10 35 -21 48 -24 12 -4 42 -18 65 -32 23 -13
50 -24 61 -24 10 0 35 -9 55 -19 107 -56 510 -165 701 -190 77 -10 196 -23
240 -26 55 -4 60 -6 60 -20 0 -13 34 -15 245 -15 211 0 245 2 245 15 0 17 3
18 80 20 85 4 298 31 365 48 33 8 90 20 127 26 36 6 82 18 100 25 19 8 64 22
101 30 37 9 77 22 90 30 12 8 38 17 57 21 33 7 124 43 215 84 22 11 51 22 65
26 14 4 36 15 50 24 14 9 41 24 60 34 19 10 62 33 95 51 33 19 67 38 75 42 40
20 198 128 305 208 161 120 488 447 610 611 50 65 92 124 95 130 3 5 23 36 45
69 82 120 124 192 195 336 70 140 90 183 90 194 0 6 11 33 25 60 14 27 25 57
25 65 0 9 12 39 25 66 14 28 25 58 25 67 0 10 11 46 24 80 13 35 27 81 31 103
3 22 15 69 25 105 11 36 24 101 30 145 6 44 24 121 41 172 l29 92 1 339 c1
347 -3 394 -43 544 -11 43 -26 108 -33 145 -23 129 -135 489 -195 628 -66 154
-182 387 -210 423 -11 14 -20 29 -20 34 0 17 -174 272 -250 367 -41 52 -86
108 -99 125 -14 17 -50 58 -80 91 -31 34 -68 79 -82 100 -63 97 -79 123 -103
170 -14 27 -26 55 -26 62 0 6 -10 33 -21 60 -12 26 -33 100 -46 163 l-25 115
-9 4410 c-5 2426 -12 5123 -16 5995 -5 872 -5 2206 -1 2965 5 759 6 2555 5
3990 l-4 2610 -21 105 c-12 58 -21 119 -22 137 0 17 -11 62 -24 100 -13 37
-27 86 -31 108 -3 22 -15 58 -25 80 -10 22 -25 60 -33 85 -22 68 -59 151 -98
220 -18 34 -40 74 -48 88 -37 73 -112 181 -206 297 -108 133 -133 158 -247
251 -177 144 -232 180 -393 258 -171 83 -200 96 -217 96 -9 0 -36 8 -60 18
-24 10 -72 24 -108 31 -36 7 -87 19 -115 27 -76 23 -323 46 -475 44 -169 -1
-428 -26 -478 -45 -20 -8 -66 -21 -102 -29 -60 -13 -147 -43 -275 -95 -75 -30
-205 -103 -285 -160 -25 -17 -63 -43 -85 -58 -22 -14 -110 -96 -196 -182 -141
-141 -194 -208 -283 -349 -41 -65 -156 -293 -156 -308 0 -7 -11 -34 -25 -60
-14 -26 -25 -58 -25 -71 0 -13 -11 -50 -25 -83 -14 -33 -25 -68 -25 -79 0 -11
-13 -80 -29 -153 -16 -73 -32 -178 -36 -233 -3 -55 -10 -145 -15 -200 -31
-314 -32 -461 -27 -4482 3 -2985 1 -4067 -7 -4078 -10 -13 -625 -14 -5180 -8
-4902 6 -5170 7 -5187 24 -11 11 -20 41 -24 81 -3 34 -5 1573 -3 3418 l3 3355
22 80 c11 44 24 100 28 125 8 55 50 187 81 258 13 29 24 58 24 65 0 16 61 136
88 175 12 16 22 34 22 39 0 4 15 29 33 54 17 25 47 68 66 95 19 27 65 87 103
134 91 115 94 119 183 250 84 124 89 131 159 260 26 47 52 92 57 100 9 15 28
53 76 160 14 30 31 67 38 81 55 103 176 496 195 630 6 41 18 108 28 149 14 63
17 126 17 400 -1 299 -2 333 -23 424 -12 55 -22 112 -22 128 0 33 -53 260 -76
328 -9 25 -24 76 -34 113 -10 37 -25 78 -33 90 -8 12 -18 38 -22 57 -4 19 -18
55 -31 80 -13 25 -24 51 -24 59 0 7 -9 30 -19 50 -10 20 -51 101 -91 181 -39
80 -84 166 -98 191 -15 26 -37 65 -49 86 -26 47 -97 158 -124 193 -10 14 -34
48 -53 76 -93 140 -379 446 -546 585 -62 52 -245 184 -295 214 -138 82 -371
205 -389 205 -6 0 -38 14 -71 30 -33 16 -69 30 -80 30 -11 0 -36 8 -55 19 -19
10 -59 23 -88 30 -29 6 -65 17 -80 25 -15 8 -65 21 -112 31 -47 9 -105 23
-130 30 -25 8 -85 19 -135 25 -49 6 -112 15 -140 21 -144 28 -502 41 -797 29z
m532 -1470 c155 -24 186 -29 220 -40 19 -6 64 -19 100 -29 81 -23 177 -61 210
-83 14 -9 36 -19 50 -23 14 -4 41 -18 60 -31 19 -13 38 -24 42 -24 11 0 137
-88 211 -147 113 -91 188 -166 260 -259 73 -96 177 -250 177 -263 0 -5 11 -24
24 -44 13 -19 27 -46 30 -58 4 -13 18 -49 31 -79 27 -62 50 -130 71 -210 9
-30 24 -84 34 -120 11 -36 24 -126 31 -200 15 -176 6 -569 -16 -660 -8 -36
-24 -103 -35 -150 -73 -321 -252 -634 -493 -865 -126 -121 -300 -254 -333
-255 -5 0 -25 -11 -44 -25 -19 -14 -40 -25 -48 -25 -8 0 -31 -10 -51 -22 -91
-57 -341 -129 -516 -150 -217 -26 -638 -5 -737 36 -20 9 -58 20 -85 26 -124
28 -342 128 -481 221 -242 163 -473 419 -567 629 -8 19 -22 46 -31 60 -8 14
-22 41 -30 60 -8 19 -23 53 -33 75 -61 133 -119 399 -132 600 -11 178 1 449
26 555 8 36 20 90 26 120 14 75 56 204 85 266 13 28 24 56 24 62 0 10 34 78
99 197 22 40 71 114 96 146 11 14 31 41 45 60 67 93 300 305 424 386 118 75
345 177 466 208 116 30 137 35 235 49 54 8 99 16 100 18 8 8 389 -2 455 -12z
m14740 -24187 c241 -42 471 -127 635 -233 33 -22 67 -43 75 -46 32 -16 168
-133 253 -219 93 -93 194 -218 233 -289 89 -158 179 -363 206 -471 6 -22 20
-71 30 -110 11 -38 25 -122 30 -185 5 -63 14 -138 20 -165 21 -101 -11 -519
-50 -650 -11 -38 -25 -88 -30 -110 -29 -114 -129 -339 -192 -435 -9 -14 -30
-45 -46 -70 -121 -187 -365 -417 -555 -524 -229 -128 -442 -201 -689 -236 -78
-12 -421 -11 -510 0 -143 18 -376 78 -465 120 -22 10 -57 24 -77 30 -21 6 -40
15 -43 20 -3 5 -29 20 -58 34 -53 26 -58 29 -137 81 -196 131 -333 266 -474
468 -26 38 -52 80 -57 95 -6 15 -17 34 -25 43 -30 34 -70 120 -119 264 -10 28
-28 79 -40 115 -13 36 -31 106 -40 155 -9 50 -21 108 -26 130 -5 22 -12 126
-15 230 -7 214 6 396 36 513 11 42 20 86 20 99 0 12 11 52 25 89 14 36 25 74
25 84 0 9 11 38 25 64 14 26 25 53 25 60 0 15 109 229 141 276 115 168 302
373 402 439 14 9 45 30 69 47 46 34 89 59 178 107 30 17 66 36 80 43 14 8 31
14 38 14 7 0 34 11 60 24 27 13 66 28 87 32 22 4 57 15 80 24 22 10 67 21 100
24 33 4 82 14 108 23 56 18 268 31 417 26 58 -2 170 -16 250 -30z"/>
</g>
</svg>
